<?xml version="1.0" standalone="no"?>
<!DOCTYPE svg PUBLIC "-//W3C//DTD SVG 20010904//EN"
 "http://www.w3.org/TR/2001/REC-SVG-20010904/DTD/svg10.dtd">
<svg version="1.0" xmlns="http://www.w3.org/2000/svg"
 width="3000.000000pt" height="3000.000000pt" viewBox="0 0 3000.000000 3000.000000"
 preserveAspectRatio="xMidYMid meet">

<g transform="translate(0.000000,3000.000000) scale(0.100000,-0.100000)"
fill="#000000" stroke="none">
<path d="M14825 26970 c-33 -5 -114 -25 -180 -45 -66 -20 -151 -45 -188 -55
-38 -10 -86 -30 -107 -45 -21 -14 -66 -35 -101 -45 -35 -11 -104 -39 -154 -64
-49 -25 -115 -57 -145 -71 -30 -14 -95 -54 -145 -89 -49 -36 -148 -105 -218
-153 -258 -178 -357 -267 -419 -375 -18 -32 -69 -111 -113 -174 -167 -241
-224 -337 -255 -435 -11 -32 -24 -67 -29 -78 -6 -10 -26 -86 -45 -167 -26
-111 -39 -196 -49 -332 -10 -129 -18 -186 -27 -192 -31 -19 -38 -232 -15 -411
14 -106 31 -221 56 -379 15 -94 54 -224 105 -350 60 -151 121 -255 227 -385
27 -33 67 -91 89 -128 44 -73 76 -106 175 -184 35 -26 109 -88 166 -138 212
-185 404 -343 460 -378 82 -53 145 -114 173 -168 36 -71 83 -269 95 -404 12
-126 5 -568 -10 -658 -12 -74 -36 -99 -117 -120 -103 -27 -593 -33 -2774 -36
-1031 -1 -2010 -6 -2175 -11 -295 -9 -537 -33 -670 -64 -33 -8 -110 -26 -172
-40 -61 -15 -124 -33 -140 -41 -15 -8 -31 -15 -35 -15 -4 0 -40 -16 -81 -35
-41 -19 -89 -35 -108 -35 -19 0 -54 -5 -78 -11 -46 -10 -288 -105 -306 -119
-5 -4 -82 -41 -170 -82 -257 -119 -588 -341 -687 -460 -24 -29 -115 -125 -203
-213 -94 -94 -179 -189 -206 -230 -25 -38 -63 -97 -84 -130 -21 -33 -71 -101
-111 -152 -70 -87 -92 -119 -228 -334 -89 -141 -143 -253 -176 -366 -16 -56
-48 -144 -71 -195 -23 -51 -57 -128 -75 -170 -44 -98 -71 -203 -90 -353 -27
-216 -110 -562 -148 -618 -35 -51 -79 -66 -249 -81 -138 -12 -165 -17 -287
-60 -166 -59 -191 -70 -258 -113 -29 -19 -87 -47 -130 -62 -235 -84 -230 -81
-393 -204 -223 -168 -341 -273 -453 -403 -96 -112 -149 -220 -192 -387 -23
-91 -47 -158 -65 -187 -51 -82 -60 -123 -69 -315 -9 -196 -27 -3218 -22 -3715
4 -420 27 -640 83 -810 37 -113 237 -509 323 -638 57 -85 229 -269 331 -352
147 -120 226 -164 382 -209 54 -16 85 -33 122 -65 37 -33 64 -47 117 -61 38
-9 105 -28 149 -40 44 -13 161 -40 260 -60 99 -20 188 -38 197 -41 22 -7 82
-105 125 -207 59 -139 113 -309 203 -642 46 -169 71 -241 167 -485 96 -242
292 -636 386 -775 143 -211 226 -322 311 -413 34 -37 109 -121 166 -187 58
-66 159 -174 225 -239 66 -66 145 -148 175 -183 144 -164 461 -345 645 -368
45 -6 68 -17 121 -56 36 -26 82 -53 102 -60 20 -6 57 -22 82 -34 54 -27 202
-67 350 -95 58 -11 119 -27 135 -35 18 -8 146 -27 310 -45 618 -67 427 -62
2615 -70 2848 -11 5789 -11 6100 0 146 5 922 12 1725 15 803 3 1570 10 1705
15 439 17 1026 71 1079 100 12 6 62 15 113 19 51 5 134 19 183 30 120 27 354
115 415 156 50 34 66 40 225 92 139 46 286 117 320 156 17 19 48 47 70 63 115
82 510 453 611 574 17 19 66 69 110 110 222 208 427 479 488 645 20 55 68 152
106 215 38 63 90 154 114 202 25 48 68 120 94 162 55 84 102 233 121 386 12
96 37 314 46 405 18 183 74 289 187 350 29 16 79 46 111 66 32 21 75 43 95 50
20 6 71 26 112 44 41 18 109 39 150 45 42 7 95 24 120 38 25 14 76 42 113 63
37 21 91 56 119 78 28 23 69 45 92 51 160 38 319 114 437 209 155 125 263 275
399 556 56 115 113 225 126 244 41 63 104 227 124 326 50 245 51 263 61 1975
9 1608 8 1872 -12 2095 -18 205 -59 466 -83 535 -71 197 -166 399 -247 530
-70 112 -344 446 -435 530 -77 71 -201 138 -444 241 -107 45 -215 95 -240 110
-43 27 -396 159 -423 159 -23 0 -169 51 -234 81 -35 17 -78 45 -97 63 -38 36
-37 29 -56 301 -12 180 -43 375 -70 450 -10 28 -34 93 -53 145 -75 209 -133
338 -198 445 -38 62 -98 170 -133 240 -36 69 -88 157 -116 195 -28 38 -68 94
-89 124 -20 31 -62 83 -92 117 -30 34 -63 77 -75 96 -12 18 -30 44 -42 56 -11
12 -47 61 -80 110 -120 176 -311 352 -597 552 -32 22 -91 67 -133 100 -128
101 -232 175 -291 204 -79 40 -280 107 -403 135 -56 13 -143 36 -192 50 -48
14 -96 26 -105 26 -9 0 -68 19 -131 42 -304 108 -307 109 -594 154 -143 23
-204 27 -546 33 -410 8 -510 9 -2990 21 -1579 7 -1607 8 -1709 29 -58 11 -108
24 -112 28 -16 18 -41 264 -46 463 -9 342 5 406 133 600 47 72 185 203 380
360 194 157 294 251 343 323 27 40 76 95 109 124 33 29 86 87 118 130 32 43
81 102 107 132 75 82 102 131 178 326 39 99 81 198 93 220 41 76 77 164 113
282 l36 118 0 205 c1 193 -2 223 -46 520 -39 266 -52 334 -87 439 -40 120
-111 274 -189 411 -21 36 -55 101 -77 145 -52 107 -142 225 -285 372 -66 66
-119 126 -119 131 0 12 -126 111 -245 194 -123 86 -565 300 -715 348 -69 21
-197 62 -285 89 -88 28 -184 55 -214 61 -62 12 -467 11 -556 0z m3445 -8481
c58 -4 384 -13 725 -18 811 -13 1080 -25 1303 -57 268 -38 453 -86 477 -124
20 -33 179 -117 321 -170 161 -60 359 -215 479 -375 21 -27 59 -73 84 -100 90
-98 131 -152 199 -260 29 -46 136 -266 168 -344 19 -46 53 -111 76 -145 23
-33 61 -103 86 -156 125 -270 129 -375 128 -3425 -1 -2253 -6 -2764 -29 -2955
-9 -69 -21 -172 -28 -230 -21 -192 -97 -465 -157 -570 -21 -36 -43 -76 -49
-90 -57 -125 -76 -160 -110 -199 -13 -14 -23 -31 -23 -37 0 -23 -103 -157
-164 -213 -37 -34 -70 -68 -236 -244 -36 -38 -151 -134 -257 -214 -214 -161
-371 -249 -537 -303 -54 -18 -123 -43 -154 -57 -58 -25 -85 -32 -242 -63 -199
-38 -351 -43 -1675 -46 -1241 -4 -1908 -13 -2415 -34 -135 -5 -362 -14 -505
-20 -284 -12 -1446 -11 -1970 1 -181 4 -1012 10 -1845 13 -1835 6 -1833 6
-2110 93 -63 20 -164 59 -225 88 -60 29 -121 56 -135 60 -27 7 -31 8 -132 54
-37 17 -71 31 -76 31 -14 0 -305 220 -364 275 -29 28 -80 73 -113 100 -122
103 -345 341 -345 369 0 6 -64 90 -80 106 -18 17 -160 190 -176 214 -21 34
-103 225 -140 331 -14 39 -32 117 -40 175 -16 117 -59 393 -75 485 -27 151
-34 4739 -8 5325 21 499 62 803 138 1035 86 264 99 291 223 477 202 303 296
402 647 679 134 106 234 163 322 183 38 8 113 38 167 65 190 96 261 123 371
141 58 10 117 23 131 28 46 18 291 64 389 73 53 5 1235 13 2626 18 2738 10
4078 20 4220 31 129 10 1010 10 1135 -1z"/>
<path d="M11590 16118 c-25 -18 -67 -53 -95 -79 -27 -26 -72 -65 -100 -86 -27
-22 -99 -89 -160 -149 -60 -60 -150 -138 -200 -174 -52 -37 -143 -119 -215
-194 -355 -369 -558 -574 -623 -629 -279 -238 -312 -310 -312 -667 1 -183 3
-214 23 -285 35 -119 86 -209 167 -291 76 -77 139 -118 212 -139 27 -8 100
-32 163 -54 188 -66 273 -72 465 -34 71 13 223 64 325 109 19 8 52 36 73 62
21 26 52 65 70 87 73 92 187 184 281 230 115 55 160 63 211 40 55 -27 146
-122 216 -227 110 -165 136 -186 296 -234 254 -76 595 -85 739 -19 28 13 91
33 139 44 156 38 171 51 250 230 58 131 67 195 69 496 1 213 -1 235 -22 302
-44 141 -145 288 -292 423 -55 52 -124 125 -151 163 -53 72 -204 227 -305 312
-32 27 -95 84 -139 125 -44 42 -116 100 -159 130 -44 29 -116 81 -160 115
-110 84 -305 222 -379 269 -34 21 -91 58 -127 81 -129 83 -188 93 -260 43z"/>
<path d="M18415 16122 c-102 -49 -233 -151 -397 -309 -86 -83 -183 -168 -215
-189 -88 -56 -214 -165 -332 -288 -164 -171 -207 -213 -331 -325 -130 -117
-196 -191 -245 -272 -18 -31 -71 -106 -117 -167 -131 -174 -209 -305 -245
-412 -18 -52 -33 -104 -33 -115 1 -55 99 -194 248 -350 42 -45 107 -115 144
-157 75 -85 82 -88 263 -133 61 -15 169 -43 240 -62 115 -30 146 -34 271 -36
l141 -2 46 38 c25 20 79 60 120 87 75 50 101 81 170 202 36 62 188 212 241
238 48 23 144 27 187 7 42 -19 89 -65 196 -193 167 -199 218 -245 317 -288
132 -56 224 -77 366 -83 152 -6 232 9 357 65 49 22 120 49 158 61 122 36 159
83 223 281 17 52 60 157 96 232 l66 137 0 100 c0 57 -5 112 -12 128 -17 39
-182 315 -231 388 -51 74 -141 180 -289 340 -35 39 -84 92 -109 119 -81 91
-445 454 -509 508 -85 73 -180 152 -305 253 -86 70 -232 162 -305 191 -92 37
-109 37 -175 6z"/>
<path d="M13224 10951 c-48 -9 -59 -57 -43 -197 18 -167 78 -388 143 -527 20
-43 36 -81 36 -84 0 -5 19 -50 56 -128 78 -168 290 -466 391 -551 74 -62 312
-215 366 -236 27 -10 89 -48 139 -83 110 -79 195 -121 285 -139 343 -71 343
-71 608 -71 231 0 261 2 395 28 258 49 267 52 360 117 47 33 137 94 200 137
190 127 234 169 428 403 87 105 126 163 194 290 43 78 138 306 138 329 0 10
72 202 143 386 20 50 43 132 53 183 16 83 16 94 2 108 -12 12 -60 17 -254 24
-225 9 -3598 19 -3640 11z"/>
</g>
</svg>
